<svg xmlns="http://www.w3.org/2000/svg" xmlns:xlink="http://www.w3.org/1999/xlink" width="1147.87" height="1064.422" viewBox="0 0 1147.87 1064.422"><defs><style>.a{fill:#58c7c0;opacity:0.82;}.b{fill:rgba(103,199,88,0.61);}.c{filter:url(#c);}.d{filter:url(#a);}</style><filter id="a" x="0" y="0" width="1147.87" height="1064.422" filterUnits="userSpaceOnUse"><feOffset dx="15" input="SourceAlpha"/><feGaussianBlur result="b"/><feFlood flood-color="#8ce390" flood-opacity="0.459"/><feComposite operator="in" in2="b"/><feComposite in="SourceGraphic"/></filter><filter id="c" x="83.902" y="409.211" width="602.033" height="629.811" filterUnits="userSpaceOnUse"><feOffset dy="15" input="SourceAlpha"/><feGaussianBlur result="d"/><feFlood flood-color="#58c7c0" flood-opacity="0.459"/><feComposite operator="in" in2="d"/><feComposite in="SourceGraphic"/></filter></defs><g class="d" transform="matrix(1, 0, 0, 1, 0, 0)"><path class="a" d="M647.136,174.929c78.541,7.616,120.293,72.511,185.9,105.672,59.953,30.3,143.714,36.087,183.737,81.158,40.415,45.512,38.419,105.256,29.982,159.516-7.894,50.767-54.691,91.007-76.471,139.453-28.157,62.631-4.145,143.958-70.551,187.568-64.9,42.618-170.084,43.767-252.6,24.651-78.3-18.141-107.157-90.565-175.912-123.929C407.588,718.138,318.27,726.09,263.549,686.81,203.113,643.427,154.938,583.9,153.96,521.274c-.98-62.743,54.41-117.363,104.382-167.782,46.145-46.557,106.742-81.532,172.789-111.865,67.525-31.013,137.41-74.319,216-66.7" transform="translate(309.08 -227.7) rotate(30)"/></g><g transform="translate(83.902 409.211)"><g class="c" transform="matrix(1, 0, 0, 1, -83.9, -409.21)"><path class="b" d="M500,144.909c66.323,11.51,89.038,95.465,135.625,144.055C669.6,324.4,711,350.085,736.78,391.866c28.548,46.273,51.587,95.806,54.92,150.074,3.841,62.525,10.091,136.942-34.594,180.844-44.913,44.126-119.491,27.01-182.24,32.19-50.31,4.153-97.92-1.622-148.294-4.907-66.468-4.334-149.208,30.9-195-17.476-45.233-47.784,1.469-127.821-4.565-193.342-5.612-60.941-49.314-119.5-29.58-177.429,20.079-58.942,82.286-89.562,132.893-125.843C383.571,197.8,435.447,133.706,500,144.909" transform="translate(-108.45 265.6)"/></g></g></svg>