<svg xmlns="http://www.w3.org/2000/svg" xmlns:xlink="http://www.w3.org/1999/xlink" width="567.228" height="538.009" viewBox="0 0 567.228 538.009"><defs><style>.a{fill:#58c7c0;opacity:0.82;}.b{filter:url(#a);}</style><filter id="a" x="0" y="0" width="567.228" height="538.009" filterUnits="userSpaceOnUse"><feOffset dx="15" input="SourceAlpha"/><feGaussianBlur result="b"/><feFlood flood-color="#8ce390" flood-opacity="0.459"/><feComposite operator="in" in2="b"/><feComposite in="SourceGraphic"/></filter></defs><g class="b" transform="matrix(1, 0, 0, 1, 0, 0)"><path class="a" d="M212.6-.477c37.124,7.793,59.805,43.813,92.114,64.362,29.524,18.778,69,25.864,89.915,51.415,21.117,25.8,23.076,57,21.755,85.02-1.236,26.214-21.187,45.029-29.034,69.355-10.144,31.448,5.031,75.217-23.934,94.849-28.306,19.185-77.476,14.694-117.016.683-37.521-13.295-54.532-52.635-88.324-73.443-31.275-19.258-72.689-19.417-100.2-42.646-30.383-25.654-55.81-59.171-59.3-92.029-3.5-32.918,19.78-58.851,40.724-82.845C58.638,52.088,85.3,36.7,114.742,24.006,144.841,11.029,175.448-8.275,212.6-.477" transform="translate(190.22 2.86) rotate(30)"/></g></svg>